<svg version="1.1" id="Layer_1" xmlns="http://www.w3.org/2000/svg" xmlns:xlink="http://www.w3.org/1999/xlink" x="0px" y="0px"
	 width="100%" viewBox="0 0 1654 827" enableBackground="new 0 0 1654 827" xml:space="preserve">
<path fill="#FFFFFF" opacity="1.000000" stroke="none" 
	d="
M1017.000000,828.000000 
	C678.000000,828.000000 339.500000,828.000000 1.000000,828.000000 
	C1.000000,552.333313 1.000000,276.666656 1.000000,1.000000 
	C552.333313,1.000000 1103.666626,1.000000 1655.000000,1.000000 
	C1655.000000,276.666656 1655.000000,552.333313 1655.000000,828.000000 
	C1442.500000,828.000000 1230.000000,828.000000 1017.000000,828.000000 
M1404.328735,575.156799 
	C1403.847412,576.090698 1403.365967,577.024597 1402.266357,578.211914 
	C1395.694092,584.774963 1388.314087,589.408264 1378.831543,591.207092 
	C1357.786011,595.199280 1336.863403,584.060364 1331.567749,563.551331 
	C1328.777710,552.746765 1328.287842,541.147888 1328.196167,529.895996 
	C1328.072388,514.723816 1329.014526,499.518097 1330.076782,484.367279 
	C1331.533691,463.587921 1347.217041,449.987305 1366.768311,448.108704 
	C1388.889404,445.983215 1405.584839,460.088501 1411.102173,480.144196 
	C1411.418457,481.294189 1413.111938,482.817261 1414.225708,482.869965 
	C1420.021484,483.144073 1425.837158,482.997620 1432.207275,482.997620 
	C1431.744263,480.707184 1431.439941,478.852448 1430.990601,477.033539 
	C1427.563110,463.160004 1420.865723,451.016052 1409.507324,442.347351 
	C1393.979736,430.496613 1375.653809,426.973175 1357.080322,431.314178 
	C1326.022949,438.572906 1310.156250,458.004578 1309.207886,488.507904 
	C1308.490967,511.560547 1309.283447,534.685852 1310.114746,557.753174 
	C1310.841431,577.914001 1321.675537,592.203430 1338.787354,601.919678 
	C1352.668701,609.801697 1367.699219,611.683228 1383.306519,608.961304 
	C1394.744385,606.966492 1404.847900,602.212097 1413.413696,594.152222 
	C1423.927124,584.259766 1429.564575,572.012024 1431.910278,557.464783 
	C1431.612671,557.365417 1431.315063,557.265991 1430.090454,557.018860 
	C1424.727173,557.068115 1419.363770,557.117371 1413.225220,557.034180 
	C1411.117554,562.003784 1409.009888,566.973450 1406.981934,571.987061 
	C1406.981934,571.987061 1406.939697,571.906372 1406.330688,572.154907 
	C1405.854492,573.084351 1405.378296,574.013733 1404.981812,574.987061 
	C1404.981812,574.987061 1404.939697,574.906372 1404.328735,575.156799 
M207.000000,403.500000 
	C207.000000,371.167603 206.999130,338.835175 207.000473,306.502777 
	C207.000916,296.074310 208.109665,295.106720 218.444855,294.920044 
	C221.869324,294.858215 223.441330,295.995697 225.196457,299.030090 
	C227.805847,303.541382 231.197311,307.824371 235.033752,311.360687 
	C247.537415,322.886169 269.526520,323.001160 282.541962,311.918793 
	C293.572968,302.526184 298.135742,290.204681 295.764099,276.268951 
	C293.247894,261.483582 284.451019,251.523254 269.538574,246.765854 
	C251.036865,240.863373 231.089127,250.724609 225.050308,266.930878 
	C222.251785,274.441254 218.527466,275.661194 211.989075,275.040924 
	C205.453033,274.420868 199.768738,276.407257 195.182648,281.303711 
	C187.325470,289.692627 186.207977,300.416626 186.151245,310.883575 
	C185.835983,369.043640 185.969635,427.206329 186.043991,485.368011 
	C186.051971,491.621765 185.936630,498.030762 187.225830,504.080627 
	C188.335587,509.288483 190.508804,514.742493 193.712463,518.943237 
	C203.531479,531.818176 218.265274,534.093628 233.080780,534.846558 
	C242.290985,535.314636 251.572647,534.180420 260.826416,534.039185 
	C271.767792,533.872131 282.713684,534.000000 293.735138,534.000000 
	C293.735138,552.564880 293.735138,570.633179 293.735138,589.505859 
	C285.939362,588.632263 278.371277,588.375793 271.067078,586.853455 
	C250.114731,582.486145 229.936035,575.816589 211.401001,564.801636 
	C193.566483,554.202942 177.583206,541.499878 163.955353,525.665894 
	C151.129471,510.763672 140.821701,494.531433 132.790176,476.596344 
	C122.238899,453.034454 118.058250,428.192444 117.211853,402.747253 
	C116.899696,393.362823 118.931259,383.891449 120.001099,374.471893 
	C122.141914,355.622772 128.182144,337.856750 136.616913,321.072479 
	C147.603317,299.210663 162.016861,279.850128 180.664505,263.609833 
	C193.397751,252.520325 207.120346,243.115494 222.077072,235.530197 
	C236.225601,228.354752 251.207718,223.037537 266.798157,220.230225 
	C279.155487,218.005066 291.774872,216.595505 304.317322,216.248215 
	C313.712708,215.988068 323.173950,217.966583 332.600464,218.997650 
	C350.814240,220.989838 367.875793,226.934570 384.260620,234.775131 
	C407.974854,246.122986 428.333313,261.845734 445.526550,281.883179 
	C461.372986,300.350983 473.403992,320.905151 480.920685,343.929810 
	C488.401703,366.845062 492.187012,390.263794 490.208252,414.652283 
	C488.657013,433.771790 484.836792,452.093506 478.111328,470.023132 
	C466.996674,499.654022 448.683472,524.136169 425.309570,544.979126 
	C418.435120,551.109131 410.532684,556.103333 402.984375,561.452942 
	C399.620148,563.837219 396.546417,564.971619 392.984772,560.704468 
	C385.855682,552.163208 376.154510,548.654968 365.135529,549.023865 
	C342.171265,549.792664 324.548706,568.619141 329.364838,594.347656 
	C333.268280,615.200317 353.749146,627.334534 374.330231,623.075806 
	C390.323730,619.766357 403.843781,603.790222 402.950043,588.337585 
	C402.759460,585.042603 404.760071,583.948730 407.034515,582.381104 
	C418.511688,574.470886 430.611969,567.227478 441.056396,558.104675 
	C464.099548,537.977356 481.854187,513.711182 494.002350,485.420502 
	C504.175323,461.729584 509.773621,436.950867 510.734100,411.366638 
	C511.242462,397.825897 509.483948,384.127686 507.914490,370.597351 
	C505.183014,347.049011 497.083527,325.158813 485.802277,304.399658 
	C472.599518,280.104706 455.208252,259.391205 433.642517,242.000580 
	C415.534271,227.398102 395.579163,216.271698 373.794067,208.438553 
	C354.578644,201.529343 334.808319,197.061737 314.237549,197.003143 
	C306.889954,196.982208 299.496735,196.480774 292.205078,197.119904 
	C280.848083,198.115372 269.404449,199.159164 258.275879,201.503647 
	C236.802811,206.027481 216.640213,214.276703 197.829651,225.647964 
	C176.050888,238.813507 156.996872,255.187164 141.379303,275.293274 
	C128.518265,291.850677 118.103798,309.897247 110.773308,329.629242 
	C103.433670,349.385895 98.602737,369.674164 98.035759,390.822693 
	C97.816605,398.997345 97.456161,407.227966 98.131996,415.352264 
	C99.063042,426.544464 100.216080,437.807068 102.522049,448.777130 
	C107.037781,470.259644 115.394333,490.357300 126.661362,509.229401 
	C138.784882,529.536072 153.818298,547.429993 172.059967,562.418823 
	C188.765244,576.145264 207.275772,587.025513 227.415192,595.098450 
	C241.423050,600.713501 255.780212,604.956421 270.739624,606.957642 
	C277.875977,607.912231 285.067413,608.498657 292.248932,609.059204 
	C299.412384,609.618530 306.594666,609.937256 314.236877,610.389038 
	C314.236877,584.294434 314.236877,559.226135 314.236877,534.000244 
	C333.498199,534.000244 352.330872,533.592773 371.133057,534.172852 
	C380.481842,534.461243 389.537781,534.155884 398.332062,530.982910 
	C414.709167,525.074036 422.710846,514.673584 422.817505,498.896637 
	C423.254547,434.238342 423.138153,369.574646 422.777344,304.915436 
	C422.742859,298.735962 420.466034,292.147766 417.701843,286.496979 
	C412.743652,276.361237 403.481049,273.592529 392.809235,275.047394 
	C389.001587,275.566467 387.068451,274.105499 386.131256,270.533417 
	C381.087006,251.307327 357.670105,240.552444 339.306274,246.867706 
	C321.504700,252.989609 311.888275,268.694672 313.893524,287.786713 
	C316.222687,309.962952 340.464050,325.632355 362.346649,318.321716 
	C374.228210,314.352234 381.686340,306.274933 386.427368,295.000000 
	C389.497467,295.000000 392.560486,295.404449 395.466431,294.901489 
	C399.431885,294.215149 400.877441,296.616241 401.669098,299.454742 
	C402.492310,302.406250 402.943909,305.560577 402.947327,308.626892 
	C403.017487,371.288208 403.003265,433.949646 402.979736,496.611053 
	C402.979187,498.068390 402.822815,499.559692 402.491486,500.977264 
	C400.542450,509.316254 390.954956,513.897644 381.359375,513.927002 
	C330.530762,514.082397 279.701019,514.093201 228.873184,513.844238 
	C224.208954,513.821411 219.280334,512.219177 214.968307,510.262177 
	C209.865341,507.946228 206.823257,503.957153 206.879318,497.491150 
	C207.148117,466.496063 207.000000,435.497406 207.000000,403.500000 
M306.500000,469.000000 
	C331.249725,469.000000 355.999420,469.000000 380.695007,469.000000 
	C380.695007,422.678467 380.695007,376.964966 380.695007,331.303589 
	C330.011108,331.303589 279.632782,331.303589 229.304901,331.303589 
	C229.304901,377.321320 229.304901,423.034821 229.304901,469.000000 
	C254.905991,469.000000 280.203003,469.000000 306.500000,469.000000 
M878.520081,267.983551 
	C874.903381,275.273102 871.286682,282.562683 867.340332,290.516724 
	C863.078125,282.099274 859.004639,274.379181 855.220642,266.519653 
	C844.490356,244.232147 833.900146,221.877213 823.155273,199.596848 
	C822.626587,198.500488 821.167114,197.134338 820.120911,197.117004 
	C809.185059,196.936081 798.245056,197.005386 787.276001,197.005386 
	C787.276001,256.256287 787.276001,314.982269 787.276001,373.704407 
	C798.953613,373.704407 810.352722,373.704407 822.373718,373.704407 
	C822.373718,340.963409 822.373718,308.514709 822.373718,276.066040 
	C824.380005,277.250702 825.257812,278.709045 826.016724,280.226837 
	C835.074524,298.340942 844.069519,316.486816 853.244263,334.541382 
	C853.988403,336.005890 855.891541,337.780762 857.325745,337.844513 
	C864.779602,338.175842 872.256042,337.998810 879.447754,337.998810 
	C889.857056,317.286621 900.076416,296.952484 910.295715,276.618378 
	C910.904724,276.838348 911.513672,277.058319 912.122681,277.278290 
	C912.122681,309.466400 912.122681,341.654541 912.122681,373.640747 
	C924.083191,373.640747 935.484497,373.640747 946.629639,373.640747 
	C946.629639,314.554413 946.629639,255.827820 946.629639,197.125565 
	C934.942810,197.125565 923.626709,197.125565 912.252075,197.125565 
	C901.128113,220.584152 890.041687,243.963409 878.520081,267.983551 
M987.000000,221.500000 
	C987.000000,272.249908 987.000000,322.999817 987.000000,373.693390 
	C1026.318604,373.693390 1065.044678,373.693390 1103.674683,373.693390 
	C1103.674683,362.984314 1103.674683,352.584747 1103.674683,341.757599 
	C1076.620483,341.757599 1049.889404,341.757599 1023.357056,341.757599 
	C1023.357056,327.586365 1023.357056,313.853577 1023.357056,299.692871 
	C1046.444824,299.692871 1069.177002,299.692871 1091.785645,299.692871 
	C1091.785645,289.306671 1091.785645,279.358948 1091.785645,268.978363 
	C1068.844238,268.978363 1046.111816,268.978363 1023.247437,268.978363 
	C1023.247437,255.475967 1023.247437,242.412064 1023.247437,228.913239 
	C1050.222168,228.913239 1076.953125,228.913239 1103.719727,228.913239 
	C1103.719727,218.076447 1103.719727,207.678116 1103.719727,197.290863 
	C1064.713013,197.290863 1025.987183,197.290863 987.000000,197.290863 
	C987.000000,205.219437 987.000000,212.859726 987.000000,221.500000 
M732.699829,607.999023 
	C738.322205,607.999023 743.944519,607.999023 750.006287,607.999023 
	C750.006287,581.857666 750.006287,556.129700 750.006287,530.001770 
	C763.237976,530.001770 776.025269,529.929993 788.808533,530.120850 
	C789.989624,530.138428 791.563904,531.588074 792.242859,532.779114 
	C795.614746,538.693298 798.854553,544.689270 801.944336,550.756592 
	C811.070496,568.677002 820.058655,586.667908 829.257751,604.550537 
	C830.010315,606.013489 831.907471,607.769714 833.352173,607.843994 
	C840.121460,608.192017 846.918579,607.998596 854.499023,607.998596 
	C840.431580,581.090149 826.688843,554.802979 812.880798,528.390808 
	C824.339417,526.505127 835.744629,519.443176 841.657959,510.859467 
	C849.592407,499.342041 851.701172,486.876801 850.219543,472.908569 
	C847.631714,448.511322 827.290649,432.703247 804.824768,432.130981 
	C781.681335,431.541412 758.511292,432.000000 735.352844,432.000000 
	C733.606567,432.000000 731.860229,432.000000 730.000366,432.000000 
	C730.000366,490.046844 729.990601,547.354919 730.072815,604.662903 
	C730.074402,605.772766 731.159363,606.881042 732.699829,607.999023 
M605.000000,237.500000 
	C605.000000,224.077682 605.000000,210.655365 605.000000,197.315155 
	C592.998962,197.315155 581.602966,197.315155 570.297241,197.315155 
	C570.297241,256.337646 570.297241,315.044525 570.297241,373.706726 
	C608.644836,373.706726 646.694397,373.706726 684.692139,373.706726 
	C684.692139,363.014313 684.692139,352.617950 684.692139,341.802612 
	C657.995850,341.802612 631.605042,341.802612 605.000000,341.802612 
	C605.000000,307.084656 605.000000,272.792328 605.000000,237.500000 
M956.623230,430.991608 
	C949.113708,431.005981 941.250244,429.563599 934.156189,431.287567 
	C903.850098,438.652496 887.135742,457.685669 886.214966,487.702942 
	C885.482361,511.586029 886.304321,535.540833 887.155701,559.438110 
	C887.569824,571.061279 892.242249,581.496460 900.504028,589.989563 
	C910.812134,600.586426 923.078308,607.030579 937.945740,609.196411 
	C953.660828,611.485718 968.229309,608.823120 981.509277,600.664795 
	C994.878296,592.451721 1004.853943,581.160889 1006.983765,564.833984 
	C1008.359253,554.289734 1009.635071,543.664612 1009.848145,533.053406 
	C1010.130859,518.977173 1009.255371,504.880493 1009.019592,490.790222 
	C1008.723022,473.075897 1003.998047,457.216339 989.880066,445.437103 
	C980.503723,437.614044 969.932495,432.179077 956.623230,430.991608 
M1167.000000,565.500000 
	C1167.000000,579.589050 1167.000000,593.678040 1167.000000,607.681030 
	C1204.007324,607.681030 1240.392822,607.681030 1276.655884,607.681030 
	C1276.655884,601.957336 1276.655884,596.557312 1276.655884,590.731323 
	C1246.590210,590.731323 1216.866821,590.731323 1187.373169,590.731323 
	C1187.373169,569.560486 1187.373169,548.834961 1187.373169,527.847290 
	C1213.017700,527.847290 1238.289917,527.847290 1263.764282,527.847290 
	C1263.764282,521.848450 1263.764282,516.119568 1263.764282,509.945435 
	C1238.140991,509.945435 1212.748779,509.945435 1187.267578,509.945435 
	C1187.267578,489.441071 1187.267578,469.383698 1187.267578,448.884338 
	C1217.255371,448.884338 1246.979004,448.884338 1276.695312,448.884338 
	C1276.695312,443.038788 1276.695312,437.643402 1276.695312,432.313293 
	C1240.004639,432.313293 1203.619385,432.313293 1167.000000,432.313293 
	C1167.000000,476.584106 1167.000000,520.542053 1167.000000,565.500000 
M625.500000,536.000000 
	C634.414612,535.667664 643.350220,535.610291 652.238586,534.933350 
	C663.327698,534.088928 672.901062,529.282410 680.765015,521.623413 
	C695.815674,506.964935 697.885193,488.319855 693.712097,469.298676 
	C688.623962,446.106567 669.558960,432.766815 646.561584,432.130951 
	C624.593384,431.523590 602.595154,432.000000 580.610168,432.000000 
	C578.839539,432.000000 577.068848,432.000000 575.263367,432.000000 
	C575.263367,490.925537 575.263367,549.295044 575.263367,607.713196 
	C581.591797,607.713196 587.653381,607.713196 594.152710,607.713196 
	C594.152710,583.706909 594.152710,559.983826 594.152710,536.000000 
	C604.561768,536.000000 614.530884,536.000000 625.500000,536.000000 
M715.663696,374.000000 
	C726.075012,374.000000 736.486267,374.000000 746.647095,374.000000 
	C746.647095,314.561737 746.647095,255.849045 746.647095,197.368408 
	C734.892761,197.368408 723.493774,197.368408 712.000000,197.368408 
	C712.000000,249.706879 712.000000,301.677002 712.000000,353.647125 
	C712.000000,359.310944 712.034424,364.975098 711.981445,370.638397 
	C711.963196,372.590118 711.834717,374.453491 715.663696,374.000000 
M1552.499390,432.000000 
	C1518.412231,432.000000 1484.325073,432.000000 1450.336914,432.000000 
	C1450.336914,438.025055 1450.336914,443.425385 1450.336914,449.265930 
	C1467.404053,449.265930 1484.137817,449.265930 1501.305420,449.265930 
	C1501.305420,502.445190 1501.305420,555.169678 1501.305420,607.774048 
	C1507.702148,607.774048 1513.649780,607.774048 1520.036011,607.774048 
	C1520.036011,554.825989 1520.036011,502.101562 1520.036011,448.924561 
	C1537.210083,448.924561 1553.943848,448.924561 1570.708008,448.924561 
	C1570.708008,443.067902 1570.708008,437.671051 1570.708008,432.000000 
	C1564.779663,432.000000 1559.139282,432.000000 1552.499390,432.000000 
M1115.003174,579.417664 
	C1116.668701,571.356079 1119.669678,563.311584 1119.773438,555.229919 
	C1120.275757,516.088501 1120.000000,476.937103 1120.000000,437.789246 
	C1120.000000,436.001465 1120.000000,434.213684 1120.000000,432.239380 
	C1113.173950,432.239380 1106.778442,432.239380 1100.000000,432.239380 
	C1100.000000,434.266724 1100.000000,436.060211 1100.000000,437.853699 
	C1100.000000,471.337616 1100.062134,504.821716 1099.954468,538.305298 
	C1099.928955,546.223206 1099.584351,554.159973 1098.931641,562.050476 
	C1098.240356,570.406433 1094.908325,577.990356 1088.740234,583.570435 
	C1077.613525,593.636292 1057.590576,595.158325 1045.479492,587.091370 
	C1042.409546,585.046509 1038.976685,581.074768 1036.310303,581.526672 
	C1033.036987,582.081421 1030.320312,586.274536 1027.493408,589.028687 
	C1022.786560,593.614502 1022.960083,594.971619 1028.453979,598.813599 
	C1042.335815,608.521301 1057.519897,611.548218 1074.330933,609.164185 
	C1093.136841,606.497314 1106.520996,597.024048 1115.003174,579.417664 
M301.502777,502.000000 
	C307.669312,502.000000 313.835968,502.026489 320.002319,501.992920 
	C326.872253,501.955536 330.986176,497.671265 331.000000,490.610779 
	C331.013031,483.968475 326.915771,480.025909 319.885559,480.007233 
	C309.385895,479.979309 298.886078,479.989502 288.386322,480.003845 
	C281.916016,480.012695 277.147858,484.342987 277.000092,490.299866 
	C276.830414,497.140533 281.136993,501.780121 288.005768,501.977753 
	C292.168884,502.097565 296.338257,501.999939 301.502777,502.000000 
M1210.903076,330.025391 
	C1208.655396,330.025391 1206.407715,330.025391 1204.336914,330.025391 
	C1204.336914,344.749542 1204.336914,358.819672 1204.336914,372.821106 
	C1206.963623,372.821106 1209.251953,372.821106 1212.201904,372.821106 
	C1212.201904,365.247986 1212.201904,357.826660 1212.201904,350.405334 
	C1214.938721,353.927460 1216.564819,357.653381 1218.704956,361.056091 
	C1219.554321,362.406464 1221.545898,363.792267 1223.013428,363.787933 
	C1224.481934,363.783569 1226.452759,362.385803 1227.311768,361.032715 
	C1229.493896,357.596436 1231.177124,353.843445 1233.059937,350.217224 
	C1233.395630,350.325684 1233.731201,350.434143 1234.066895,350.542633 
	C1234.066895,357.921265 1234.066895,365.299896 1234.066895,372.742584 
	C1236.886230,372.742584 1239.284424,372.742584 1241.741943,372.742584 
	C1241.741943,358.409332 1241.741943,344.334778 1241.741943,330.282532 
	C1233.517822,329.646240 1233.772827,329.799103 1230.709473,337.435303 
	C1228.691284,342.465942 1225.650269,347.086212 1222.729370,352.518768 
	C1218.752563,344.482910 1215.234131,337.373383 1210.903076,330.025391 
M1196.057861,285.605377 
	C1196.461304,285.163544 1196.864746,284.721710 1197.978516,283.502136 
	C1197.978516,291.878418 1197.978516,299.239868 1197.978516,306.780823 
	C1200.812500,306.780823 1203.210449,306.780823 1205.770752,306.780823 
	C1205.770752,292.484924 1205.770752,278.408630 1205.770752,264.176453 
	C1203.111816,264.176453 1200.682373,264.176453 1198.441650,264.176453 
	C1194.658813,271.668579 1190.985840,278.942932 1186.970215,286.896149 
	C1182.855347,278.693481 1179.179443,271.366028 1175.572388,264.175598 
	C1173.014282,264.175598 1170.727783,264.175598 1168.222168,264.175598 
	C1168.222168,278.426758 1168.222168,292.502747 1168.222168,306.784088 
	C1170.806152,306.784088 1173.204102,306.784088 1176.039917,306.784088 
	C1176.039917,299.225952 1176.039917,291.868256 1176.039917,284.510590 
	C1178.654785,287.472321 1180.396118,290.664001 1181.967163,293.937317 
	C1183.048096,296.189362 1183.918701,298.962128 1187.082642,297.881897 
	C1188.921021,297.254303 1190.738037,295.722260 1191.885742,294.112946 
	C1193.562378,291.762146 1194.628906,288.976105 1196.057861,285.605377 
M1258.415039,372.998993 
	C1259.276489,372.011169 1260.821045,371.063507 1260.881836,370.028625 
	C1261.152832,365.417999 1260.999512,360.782440 1260.999512,356.494415 
	C1265.590332,355.000397 1267.821045,356.570526 1269.332275,360.565369 
	C1270.927856,364.783203 1273.342773,368.691071 1275.410645,372.755859 
	C1278.409180,372.755859 1281.450562,372.755859 1284.310303,372.755859 
	C1281.479492,366.654541 1278.712158,360.690002 1275.945190,354.726074 
	C1281.167358,351.800964 1283.621582,347.182190 1282.846802,341.652252 
	C1282.042114,335.909058 1279.335327,331.122437 1272.369873,330.804352 
	C1266.022217,330.514496 1259.682007,330.061676 1253.274780,329.676880 
	C1253.274780,344.603485 1253.274780,358.672485 1253.274780,372.999939 
	C1254.854736,372.999939 1256.161499,372.999939 1258.415039,372.998993 
M1242.993774,209.789948 
	C1242.579468,209.208435 1242.094971,208.083435 1241.761353,208.126511 
	C1236.295898,208.832214 1230.860840,208.339890 1225.399658,208.259537 
	C1221.803345,208.206619 1218.499756,210.867233 1218.012939,215.241165 
	C1217.598389,218.964188 1217.124512,222.699692 1217.052734,226.436890 
	C1216.964722,231.019135 1218.196167,235.446167 1222.488281,237.680450 
	C1226.575806,239.808273 1230.999146,239.894318 1235.329224,236.525696 
	C1234.696899,239.402679 1234.023682,243.037399 1232.081909,243.938477 
	C1229.479858,245.145859 1225.895996,244.237411 1221.728027,244.237411 
	C1218.660889,247.946411 1219.117676,249.706772 1224.973999,251.480225 
	C1232.116455,253.643143 1242.874023,249.918091 1242.981689,238.683472 
	C1243.071045,229.367859 1242.999634,220.050705 1242.993774,209.789948 
M1192.187988,348.071869 
	C1186.907959,348.071869 1181.628052,348.071869 1176.257812,348.071869 
	C1176.257812,344.118317 1176.257812,340.719971 1176.257812,336.896118 
	C1182.921387,336.896118 1189.335083,336.896118 1195.712646,336.896118 
	C1195.712646,334.391541 1195.712646,332.326202 1195.712646,330.306122 
	C1186.356323,330.306122 1177.290649,330.306122 1168.321777,330.306122 
	C1168.321777,344.678009 1168.321777,358.741730 1168.321777,372.675232 
	C1177.724731,372.675232 1186.802856,372.675232 1195.645264,372.675232 
	C1195.645264,370.278687 1195.645264,368.213562 1195.645264,365.715576 
	C1188.885742,365.715576 1182.474976,365.715576 1176.208740,365.715576 
	C1176.208740,361.981506 1176.208740,358.696564 1176.208740,354.986938 
	C1181.816895,354.986938 1187.235718,354.986938 1192.906372,354.986938 
	C1192.906372,352.599762 1192.906372,350.643311 1192.187988,348.071869 
M1251.482300,276.935547 
	C1244.853149,282.895050 1246.468750,290.757416 1247.601318,297.864441 
	C1248.963257,306.410126 1254.417725,308.790680 1262.513062,305.825165 
	C1263.201416,305.572968 1264.022583,305.226746 1264.665771,305.388153 
	C1267.245483,306.035461 1269.779175,306.865540 1272.782104,307.763214 
	C1272.782104,292.537445 1272.782104,278.463104 1272.782104,264.231262 
	C1270.162476,264.231262 1267.763794,264.231262 1265.003418,264.231262 
	C1265.003418,268.555359 1265.003418,272.656464 1265.003418,275.540833 
	C1260.382324,275.847107 1256.236450,276.121857 1251.482300,276.935547 
M1251.000000,212.503418 
	C1251.000000,221.600540 1251.000000,230.697662 1251.000000,239.683975 
	C1253.995361,239.683975 1256.395630,239.683975 1259.000000,239.683975 
	C1259.000000,233.060760 1259.088623,226.750214 1258.966187,220.443771 
	C1258.894409,216.741943 1260.302490,214.896774 1264.175293,214.965363 
	C1267.824829,215.029999 1269.078613,216.871475 1269.027588,220.293289 
	C1268.931641,226.740814 1268.999878,233.190811 1268.999878,239.760132 
	C1271.854492,239.760132 1274.251709,239.760132 1276.998169,239.760132 
	C1276.998169,232.400238 1277.279175,225.260147 1276.922485,218.152054 
	C1276.533081,210.393906 1270.535767,206.491074 1262.943726,208.500320 
	C1261.781128,208.807983 1260.540405,208.820007 1258.870972,209.026184 
	C1258.870972,204.756027 1258.870972,200.994507 1258.870972,197.294617 
	C1256.043091,197.294617 1253.644287,197.294617 1251.000000,197.294617 
	C1251.000000,202.226135 1251.000000,206.865524 1251.000000,212.503418 
M1354.822510,306.999756 
	C1356.429077,306.999756 1358.035645,306.999756 1359.998535,306.999756 
	C1359.998535,299.444580 1360.381714,292.302460 1359.805176,285.238678 
	C1359.582520,282.511261 1357.792725,279.203766 1355.653931,277.478851 
	C1350.114502,273.011475 1340.385864,274.302887 1335.349731,279.327942 
	C1337.181396,280.894409 1339.023926,282.470123 1340.866333,284.045837 
	C1340.914795,283.551514 1340.963135,283.057159 1341.011475,282.562836 
	C1344.027222,282.562836 1347.221191,281.978333 1349.979980,282.820404 
	C1351.272705,283.214966 1351.725342,286.361755 1352.882935,289.000092 
	C1349.155151,289.000092 1346.687256,289.027527 1344.220337,288.994110 
	C1339.704956,288.932892 1335.760498,290.698700 1334.750122,295.034790 
	C1334.117188,297.751343 1335.012329,301.732300 1336.769531,303.879517 
	C1339.256348,306.918549 1343.752563,308.412262 1347.455322,306.562866 
	C1350.215698,305.184113 1351.854980,305.893890 1354.822510,306.999756 
M1290.000000,288.441467 
	C1290.000000,284.016479 1290.000000,279.591522 1290.000000,275.331360 
	C1286.972900,275.331360 1284.574097,275.331360 1282.001099,275.331360 
	C1282.001099,282.630127 1281.767090,289.608673 1282.061523,296.564880 
	C1282.412598,304.861725 1289.377197,309.069183 1297.105713,306.005951 
	C1297.924438,305.681427 1298.905273,305.257477 1299.684570,305.434814 
	C1302.271606,306.023651 1304.801147,306.866180 1307.791992,307.739716 
	C1307.791992,296.199158 1307.791992,285.805267 1307.791992,275.215088 
	C1305.188477,275.215088 1302.793823,275.215088 1300.000000,275.215088 
	C1300.000000,281.535583 1300.069702,287.650848 1299.971802,293.763397 
	C1299.919922,297.007538 1299.557983,300.056641 1295.007568,300.049316 
	C1290.593140,300.042206 1289.781006,297.511627 1289.985840,293.902069 
	C1290.070557,292.410370 1290.000000,290.909851 1290.000000,288.441467 
M1225.102905,306.978943 
	C1234.562256,307.890106 1240.173218,304.609589 1241.671631,295.426819 
	C1242.255249,291.850159 1241.358032,288.009674 1240.985474,284.304443 
	C1240.417603,278.656891 1236.168457,276.318390 1231.538452,275.122833 
	C1225.906250,273.668518 1219.404053,276.631592 1216.999268,280.954071 
	C1211.961914,290.008392 1215.344482,301.990021 1225.102905,306.978943 
M1176.000000,225.436050 
	C1176.000000,216.019714 1176.000000,206.603363 1176.000000,197.321289 
	C1172.990967,197.321289 1170.592529,197.321289 1168.308228,197.321289 
	C1168.308228,211.688858 1168.308228,225.733337 1168.308228,239.703308 
	C1177.350220,239.703308 1186.080811,239.703308 1194.683228,239.703308 
	C1194.683228,237.338776 1194.683228,235.276886 1194.683228,232.789871 
	C1188.308472,232.789871 1182.244629,232.789871 1176.000000,232.789871 
	C1176.000000,230.378525 1176.000000,228.398407 1176.000000,225.436050 
M1294.060059,216.877899 
	C1295.672729,216.377441 1297.285522,215.876999 1298.828125,215.398285 
	C1298.828125,213.692612 1298.828125,212.075089 1298.828125,210.288330 
	C1297.156738,210.054474 1295.626099,209.840302 1293.715820,209.573029 
	C1293.715820,206.209778 1293.715820,203.141907 1293.715820,200.371628 
	C1290.865845,200.371628 1288.471680,200.371628 1286.104980,200.371628 
	C1285.948975,205.644852 1285.766846,205.556473 1283.227661,210.787750 
	C1282.586426,212.108749 1283.292603,214.257767 1283.786011,215.904556 
	C1284.239502,217.418198 1285.708618,218.708374 1285.898560,220.202713 
	C1286.251831,222.981537 1285.999023,225.837265 1286.000244,228.660995 
	C1286.003784,237.378784 1289.630493,240.551559 1298.781860,239.631210 
	C1298.781860,237.580582 1298.781860,235.506821 1298.781860,233.308151 
	C1297.122681,233.054550 1295.599243,232.821701 1294.005859,232.578140 
	C1294.005859,227.430405 1294.005859,222.621292 1294.060059,216.877899 
M1324.000000,273.536499 
	C1324.000000,270.431488 1324.000000,267.326477 1324.000000,264.295898 
	C1321.035034,264.295898 1318.638794,264.295898 1316.000000,264.295898 
	C1316.000000,274.705170 1315.999756,284.820312 1316.000000,294.935425 
	C1316.000244,304.829071 1320.014648,308.184967 1329.709961,306.439850 
	C1329.709961,304.356903 1329.709961,302.286896 1329.709961,300.178131 
	C1327.686035,300.025452 1325.945923,299.894226 1324.000000,299.747467 
	C1324.000000,291.104523 1324.000000,282.814636 1324.000000,273.536499 
M1382.876831,282.016357 
	C1383.781494,282.561737 1384.686279,283.107086 1385.371704,283.520325 
	C1387.254028,281.388123 1389.008911,279.400391 1391.913330,276.110382 
	C1383.143921,275.720947 1375.790771,275.394409 1368.225342,275.058472 
	C1368.225342,285.825500 1368.225342,296.227051 1368.225342,306.762482 
	C1370.851196,306.762482 1373.247803,306.762482 1376.000000,306.762482 
	C1376.000000,300.406891 1376.007080,294.282501 1375.997559,288.158112 
	C1375.991211,284.088043 1377.315918,281.354950 1382.876831,282.016357 
M1203.646118,239.990585 
	C1205.718628,239.990585 1207.791138,239.990585 1209.659302,239.990585 
	C1209.659302,228.887848 1209.659302,218.492828 1209.659302,208.179428 
	C1207.030884,208.179428 1204.744751,208.179428 1202.700195,208.179428 
	C1202.700195,218.877396 1202.700195,229.392166 1203.646118,239.990585 
M1202.000732,199.579300 
	C1202.085205,201.002151 1202.169678,202.425003 1202.243774,203.673752 
	C1205.057983,203.673752 1207.459839,203.673752 1209.663696,203.673752 
	C1209.663696,201.276413 1209.663696,199.211670 1209.663696,196.085632 
	C1206.718018,197.072281 1204.363281,197.861023 1202.000732,199.579300 
z"/>
<path fill="#323231" opacity="1.000000" stroke="none" 
	d="
M207.000000,404.000000 
	C207.000000,435.497406 207.148117,466.496063 206.879318,497.491150 
	C206.823257,503.957153 209.865341,507.946228 214.968307,510.262177 
	C219.280334,512.219177 224.208954,513.821411 228.873184,513.844238 
	C279.701019,514.093201 330.530762,514.082397 381.359375,513.927002 
	C390.954956,513.897644 400.542450,509.316254 402.491486,500.977264 
	C402.822815,499.559692 402.979187,498.068390 402.979736,496.611053 
	C403.003265,433.949646 403.017487,371.288208 402.947327,308.626892 
	C402.943909,305.560577 402.492310,302.406250 401.669098,299.454742 
	C400.877441,296.616241 399.431885,294.215149 395.466431,294.901489 
	C392.560486,295.404449 389.497467,295.000000 386.427368,295.000000 
	C381.686340,306.274933 374.228210,314.352234 362.346649,318.321716 
	C340.464050,325.632355 316.222687,309.962952 313.893524,287.786713 
	C311.888275,268.694672 321.504700,252.989609 339.306274,246.867706 
	C357.670105,240.552444 381.087006,251.307327 386.131256,270.533417 
	C387.068451,274.105499 389.001587,275.566467 392.809235,275.047394 
	C403.481049,273.592529 412.743652,276.361237 417.701843,286.496979 
	C420.466034,292.147766 422.742859,298.735962 422.777344,304.915436 
	C423.138153,369.574646 423.254547,434.238342 422.817505,498.896637 
	C422.710846,514.673584 414.709167,525.074036 398.332062,530.982910 
	C389.537781,534.155884 380.481842,534.461243 371.133057,534.172852 
	C352.330872,533.592773 333.498199,534.000244 314.236877,534.000244 
	C314.236877,559.226135 314.236877,584.294434 314.236877,610.389038 
	C306.594666,609.937256 299.412384,609.618530 292.248932,609.059204 
	C285.067413,608.498657 277.875977,607.912231 270.739624,606.957642 
	C255.780212,604.956421 241.423050,600.713501 227.415192,595.098450 
	C207.275772,587.025513 188.765244,576.145264 172.059967,562.418823 
	C153.818298,547.429993 138.784882,529.536072 126.661362,509.229401 
	C115.394333,490.357300 107.037781,470.259644 102.522049,448.777130 
	C100.216080,437.807068 99.063042,426.544464 98.131996,415.352264 
	C97.456161,407.227966 97.816605,398.997345 98.035759,390.822693 
	C98.602737,369.674164 103.433670,349.385895 110.773308,329.629242 
	C118.103798,309.897247 128.518265,291.850677 141.379303,275.293274 
	C156.996872,255.187164 176.050888,238.813507 197.829651,225.647964 
	C216.640213,214.276703 236.802811,206.027481 258.275879,201.503647 
	C269.404449,199.159164 280.848083,198.115372 292.205078,197.119904 
	C299.496735,196.480774 306.889954,196.982208 314.237549,197.003143 
	C334.808319,197.061737 354.578644,201.529343 373.794067,208.438553 
	C395.579163,216.271698 415.534271,227.398102 433.642517,242.000580 
	C455.208252,259.391205 472.599518,280.104706 485.802277,304.399658 
	C497.083527,325.158813 505.183014,347.049011 507.914490,370.597351 
	C509.483948,384.127686 511.242462,397.825897 510.734100,411.366638 
	C509.773621,436.950867 504.175323,461.729584 494.002350,485.420502 
	C481.854187,513.711182 464.099548,537.977356 441.056396,558.104675 
	C430.611969,567.227478 418.511688,574.470886 407.034515,582.381104 
	C404.760071,583.948730 402.759460,585.042603 402.950043,588.337585 
	C403.843781,603.790222 390.323730,619.766357 374.330231,623.075806 
	C353.749146,627.334534 333.268280,615.200317 329.364838,594.347656 
	C324.548706,568.619141 342.171265,549.792664 365.135529,549.023865 
	C376.154510,548.654968 385.855682,552.163208 392.984772,560.704468 
	C396.546417,564.971619 399.620148,563.837219 402.984375,561.452942 
	C410.532684,556.103333 418.435120,551.109131 425.309570,544.979126 
	C448.683472,524.136169 466.996674,499.654022 478.111328,470.023132 
	C484.836792,452.093506 488.657013,433.771790 490.208252,414.652283 
	C492.187012,390.263794 488.401703,366.845062 480.920685,343.929810 
	C473.403992,320.905151 461.372986,300.350983 445.526550,281.883179 
	C428.333313,261.845734 407.974854,246.122986 384.260620,234.775131 
	C367.875793,226.934570 350.814240,220.989838 332.600464,218.997650 
	C323.173950,217.966583 313.712708,215.988068 304.317322,216.248215 
	C291.774872,216.595505 279.155487,218.005066 266.798157,220.230225 
	C251.207718,223.037537 236.225601,228.354752 222.077072,235.530197 
	C207.120346,243.115494 193.397751,252.520325 180.664505,263.609833 
	C162.016861,279.850128 147.603317,299.210663 136.616913,321.072479 
	C128.182144,337.856750 122.141914,355.622772 120.001099,374.471893 
	C118.931259,383.891449 116.899696,393.362823 117.211853,402.747253 
	C118.058250,428.192444 122.238899,453.034454 132.790176,476.596344 
	C140.821701,494.531433 151.129471,510.763672 163.955353,525.665894 
	C177.583206,541.499878 193.566483,554.202942 211.401001,564.801636 
	C229.936035,575.816589 250.114731,582.486145 271.067078,586.853455 
	C278.371277,588.375793 285.939362,588.632263 293.735138,589.505859 
	C293.735138,570.633179 293.735138,552.564880 293.735138,534.000000 
	C282.713684,534.000000 271.767792,533.872131 260.826416,534.039185 
	C251.572647,534.180420 242.290985,535.314636 233.080780,534.846558 
	C218.265274,534.093628 203.531479,531.818176 193.712463,518.943237 
	C190.508804,514.742493 188.335587,509.288483 187.225830,504.080627 
	C185.936630,498.030762 186.051971,491.621765 186.043991,485.368011 
	C185.969635,427.206329 185.835983,369.043640 186.151245,310.883575 
	C186.207977,300.416626 187.325470,289.692627 195.182648,281.303711 
	C199.768738,276.407257 205.453033,274.420868 211.989075,275.040924 
	C218.527466,275.661194 222.251785,274.441254 225.050308,266.930878 
	C231.089127,250.724609 251.036865,240.863373 269.538574,246.765854 
	C284.451019,251.523254 293.247894,261.483582 295.764099,276.268951 
	C298.135742,290.204681 293.572968,302.526184 282.541962,311.918793 
	C269.526520,323.001160 247.537415,322.886169 235.033752,311.360687 
	C231.197311,307.824371 227.805847,303.541382 225.196457,299.030090 
	C223.441330,295.995697 221.869324,294.858215 218.444855,294.920044 
	C208.109665,295.106720 207.000916,296.074310 207.000473,306.502777 
	C206.999130,338.835175 207.000000,371.167603 207.000000,404.000000 
M259.426056,300.000000 
	C262.413116,298.961884 265.709808,298.420593 268.327209,296.789368 
	C275.259003,292.469299 277.822571,284.260040 274.986938,276.643402 
	C271.942474,268.465820 263.816223,264.682404 258.009003,265.067108 
	C249.629013,265.622253 240.931168,274.808105 241.013565,282.554749 
	C241.108597,291.485901 248.868683,299.199280 259.426056,300.000000 
M353.142670,299.997101 
	C367.764740,296.837311 371.547028,281.762421 364.957489,272.659424 
	C360.797333,266.912415 352.998535,263.908081 346.625061,265.997711 
	C338.748749,268.580048 332.101318,276.284943 333.231812,283.168304 
	C334.649536,291.800842 339.829041,300.212433 353.142670,299.997101 
M376.417328,572.942688 
	C370.726715,568.256592 362.439697,567.619446 357.049408,571.453613 
	C350.202942,576.323547 347.350250,583.877441 349.618652,591.130249 
	C352.044769,598.887329 361.461731,605.621094 368.057800,603.900879 
	C374.777405,602.148376 380.731079,598.476929 382.608459,591.580627 
	C384.439819,584.853333 383.133514,578.152283 376.417328,572.942688 
z"/>
<path fill="#C2111E" opacity="1.000000" stroke="none" 
	d="
M306.000000,469.000000 
	C280.203003,469.000000 254.905991,469.000000 229.304901,469.000000 
	C229.304901,423.034821 229.304901,377.321320 229.304901,331.303589 
	C279.632782,331.303589 330.011108,331.303589 380.695007,331.303589 
	C380.695007,376.964966 380.695007,422.678467 380.695007,469.000000 
	C355.999420,469.000000 331.249725,469.000000 306.000000,469.000000 
z"/>
<path fill="#323231" opacity="1.000000" stroke="none" 
	d="
M878.737671,267.663116 
	C890.041687,243.963409 901.128113,220.584152 912.252075,197.125565 
	C923.626709,197.125565 934.942810,197.125565 946.629639,197.125565 
	C946.629639,255.827820 946.629639,314.554413 946.629639,373.640747 
	C935.484497,373.640747 924.083191,373.640747 912.122681,373.640747 
	C912.122681,341.654541 912.122681,309.466400 912.122681,277.278290 
	C911.513672,277.058319 910.904724,276.838348 910.295715,276.618378 
	C900.076416,296.952484 889.857056,317.286621 879.447754,337.998810 
	C872.256042,337.998810 864.779602,338.175842 857.325745,337.844513 
	C855.891541,337.780762 853.988403,336.005890 853.244263,334.541382 
	C844.069519,316.486816 835.074524,298.340942 826.016724,280.226837 
	C825.257812,278.709045 824.380005,277.250702 822.373718,276.066040 
	C822.373718,308.514709 822.373718,340.963409 822.373718,373.704407 
	C810.352722,373.704407 798.953613,373.704407 787.276001,373.704407 
	C787.276001,314.982269 787.276001,256.256287 787.276001,197.005386 
	C798.245056,197.005386 809.185059,196.936081 820.120911,197.117004 
	C821.167114,197.134338 822.626587,198.500488 823.155273,199.596848 
	C833.900146,221.877213 844.490356,244.232147 855.220642,266.519653 
	C859.004639,274.379181 863.078125,282.099274 867.340332,290.516724 
	C871.286682,282.562683 874.903381,275.273102 878.737671,267.663116 
z"/>
<path fill="#323231" opacity="1.000000" stroke="none" 
	d="
M987.000000,221.000015 
	C987.000000,212.859726 987.000000,205.219437 987.000000,197.290863 
	C1025.987183,197.290863 1064.713013,197.290863 1103.719727,197.290863 
	C1103.719727,207.678116 1103.719727,218.076447 1103.719727,228.913239 
	C1076.953125,228.913239 1050.222168,228.913239 1023.247437,228.913239 
	C1023.247437,242.412064 1023.247437,255.475967 1023.247437,268.978363 
	C1046.111816,268.978363 1068.844238,268.978363 1091.785645,268.978363 
	C1091.785645,279.358948 1091.785645,289.306671 1091.785645,299.692871 
	C1069.177002,299.692871 1046.444824,299.692871 1023.357056,299.692871 
	C1023.357056,313.853577 1023.357056,327.586365 1023.357056,341.757599 
	C1049.889404,341.757599 1076.620483,341.757599 1103.674683,341.757599 
	C1103.674683,352.584747 1103.674683,362.984314 1103.674683,373.693390 
	C1065.044678,373.693390 1026.318604,373.693390 987.000000,373.693390 
	C987.000000,322.999817 987.000000,272.249908 987.000000,221.000015 
z"/>
<path fill="#C2111E" opacity="1.000000" stroke="none" 
	d="
M732.219360,607.994507 
	C731.159363,606.881042 730.074402,605.772766 730.072815,604.662903 
	C729.990601,547.354919 730.000366,490.046844 730.000366,432.000000 
	C731.860229,432.000000 733.606567,432.000000 735.352844,432.000000 
	C758.511292,432.000000 781.681335,431.541412 804.824768,432.130981 
	C827.290649,432.703247 847.631714,448.511322 850.219543,472.908569 
	C851.701172,486.876801 849.592407,499.342041 841.657959,510.859467 
	C835.744629,519.443176 824.339417,526.505127 812.880798,528.390808 
	C826.688843,554.802979 840.431580,581.090149 854.499023,607.998596 
	C846.918579,607.998596 840.121460,608.192017 833.352173,607.843994 
	C831.907471,607.769714 830.010315,606.013489 829.257751,604.550537 
	C820.058655,586.667908 811.070496,568.677002 801.944336,550.756592 
	C798.854553,544.689270 795.614746,538.693298 792.242859,532.779114 
	C791.563904,531.588074 789.989624,530.138428 788.808533,530.120850 
	C776.025269,529.929993 763.237976,530.001770 750.006287,530.001770 
	C750.006287,556.129700 750.006287,581.857666 750.006287,607.999023 
	C743.944519,607.999023 738.322205,607.999023 732.219360,607.994507 
M788.467529,449.000000 
	C775.723938,449.000000 762.980347,449.000000 750.300781,449.000000 
	C750.300781,470.659119 750.300781,491.700500 750.300781,512.998474 
	C766.884460,512.998474 783.169434,513.072327 799.452393,512.929321 
	C802.328857,512.904053 805.238586,512.138977 808.062622,511.433899 
	C821.492371,508.081116 829.154968,499.259338 830.871826,485.749969 
	C832.442505,473.391174 827.485474,458.693085 813.862366,452.939270 
	C806.005371,449.620819 797.806580,448.966309 788.467529,449.000000 
z"/>
<path fill="#323231" opacity="1.000000" stroke="none" 
	d="
M605.000000,238.000000 
	C605.000000,272.792328 605.000000,307.084656 605.000000,341.802612 
	C631.605042,341.802612 657.995850,341.802612 684.692139,341.802612 
	C684.692139,352.617950 684.692139,363.014313 684.692139,373.706726 
	C646.694397,373.706726 608.644836,373.706726 570.297241,373.706726 
	C570.297241,315.044525 570.297241,256.337646 570.297241,197.315155 
	C581.602966,197.315155 592.998962,197.315155 605.000000,197.315155 
	C605.000000,210.655365 605.000000,224.077682 605.000000,238.000000 
z"/>
<path fill="#C2111E" opacity="1.000000" stroke="none" 
	d="
M957.075684,430.995331 
	C969.932495,432.179077 980.503723,437.614044 989.880066,445.437103 
	C1003.998047,457.216339 1008.723022,473.075897 1009.019592,490.790222 
	C1009.255371,504.880493 1010.130859,518.977173 1009.848145,533.053406 
	C1009.635071,543.664612 1008.359253,554.289734 1006.983765,564.833984 
	C1004.853943,581.160889 994.878296,592.451721 981.509277,600.664795 
	C968.229309,608.823120 953.660828,611.485718 937.945740,609.196411 
	C923.078308,607.030579 910.812134,600.586426 900.504028,589.989563 
	C892.242249,581.496460 887.569824,571.061279 887.155701,559.438110 
	C886.304321,535.540833 885.482361,511.586029 886.214966,487.702942 
	C887.135742,457.685669 903.850098,438.652496 934.156189,431.287567 
	C941.250244,429.563599 949.113708,431.005981 957.075684,430.995331 
M920.028931,581.541138 
	C931.564270,591.240356 944.632935,594.631104 959.178528,590.285400 
	C973.007080,586.153870 983.020569,577.358826 986.724609,563.206909 
	C988.850952,555.082886 989.736328,546.443970 989.839050,538.020508 
	C990.045166,521.115967 989.851440,504.165863 988.740356,487.305908 
	C988.298828,480.605011 986.150696,473.397156 982.720703,467.648529 
	C976.594482,457.380829 967.056824,451.470306 954.911987,448.715576 
	C936.971985,444.646423 913.019043,457.137970 909.099915,475.455750 
	C906.827026,486.078918 905.540222,497.052704 905.191406,507.913055 
	C904.739990,521.968262 905.288696,536.090027 906.117188,550.141235 
	C906.809753,561.888611 909.770630,573.029358 920.028931,581.541138 
z"/>
<path fill="#C2111E" opacity="1.000000" stroke="none" 
	d="
M1167.000000,565.000000 
	C1167.000000,520.542053 1167.000000,476.584106 1167.000000,432.313293 
	C1203.619385,432.313293 1240.004639,432.313293 1276.695312,432.313293 
	C1276.695312,437.643402 1276.695312,443.038788 1276.695312,448.884338 
	C1246.979004,448.884338 1217.255371,448.884338 1187.267578,448.884338 
	C1187.267578,469.383698 1187.267578,489.441071 1187.267578,509.945435 
	C1212.748779,509.945435 1238.140991,509.945435 1263.764282,509.945435 
	C1263.764282,516.119568 1263.764282,521.848450 1263.764282,527.847290 
	C1238.289917,527.847290 1213.017700,527.847290 1187.373169,527.847290 
	C1187.373169,548.834961 1187.373169,569.560486 1187.373169,590.731323 
	C1216.866821,590.731323 1246.590210,590.731323 1276.655884,590.731323 
	C1276.655884,596.557312 1276.655884,601.957336 1276.655884,607.681030 
	C1240.392822,607.681030 1204.007324,607.681030 1167.000000,607.681030 
	C1167.000000,593.678040 1167.000000,579.589050 1167.000000,565.000000 
z"/>
<path fill="#C2111E" opacity="1.000000" stroke="none" 
	d="
M625.000000,536.000000 
	C614.530884,536.000000 604.561768,536.000000 594.152710,536.000000 
	C594.152710,559.983826 594.152710,583.706909 594.152710,607.713196 
	C587.653381,607.713196 581.591797,607.713196 575.263367,607.713196 
	C575.263367,549.295044 575.263367,490.925537 575.263367,432.000000 
	C577.068848,432.000000 578.839539,432.000000 580.610168,432.000000 
	C602.595154,432.000000 624.593384,431.523590 646.561584,432.130951 
	C669.558960,432.766815 688.623962,446.106567 693.712097,469.298676 
	C697.885193,488.319855 695.815674,506.964935 680.765015,521.623413 
	C672.901062,529.282410 663.327698,534.088928 652.238586,534.933350 
	C643.350220,535.610291 634.414612,535.667664 625.000000,536.000000 
M670.965210,464.756256 
	C666.883545,461.156952 663.342590,456.290436 658.590271,454.263031 
	C651.893860,451.406281 644.355530,449.608887 637.078186,449.221924 
	C622.858582,448.465759 608.570435,449.000000 594.278931,449.000000 
	C594.278931,472.263245 594.278931,494.980011 594.278931,517.996948 
	C611.678040,517.996948 628.848633,518.737305 645.897095,517.617432 
	C652.340088,517.194153 659.249817,513.488159 664.639893,509.508453 
	C677.260193,500.190521 678.862732,479.140350 670.965210,464.756256 
z"/>
<path fill="#C2111E" opacity="1.000000" stroke="none" 
	d="
M1414.000488,557.166626 
	C1419.363770,557.117371 1424.727173,557.068115 1430.645996,557.268921 
	C1431.365112,557.738342 1431.575806,557.893921 1431.833496,557.985657 
	C1429.564575,572.012024 1423.927124,584.259766 1413.413696,594.152222 
	C1404.847900,602.212097 1394.744385,606.966492 1383.306519,608.961304 
	C1367.699219,611.683228 1352.668701,609.801697 1338.787354,601.919678 
	C1321.675537,592.203430 1310.841431,577.914001 1310.114746,557.753174 
	C1309.283447,534.685852 1308.490967,511.560547 1309.207886,488.507904 
	C1310.156250,458.004578 1326.022949,438.572906 1357.080322,431.314178 
	C1375.653809,426.973175 1393.979736,430.496613 1409.507324,442.347351 
	C1420.865723,451.016052 1427.563110,463.160004 1430.990601,477.033539 
	C1431.439941,478.852448 1431.744263,480.707184 1432.207275,482.997620 
	C1425.837158,482.997620 1420.021484,483.144073 1414.225708,482.869965 
	C1413.111938,482.817261 1411.418457,481.294189 1411.102173,480.144196 
	C1405.584839,460.088501 1388.889404,445.983215 1366.768311,448.108704 
	C1347.217041,449.987305 1331.533691,463.587921 1330.076782,484.367279 
	C1329.014526,499.518097 1328.072388,514.723816 1328.196167,529.895996 
	C1328.287842,541.147888 1328.777710,552.746765 1331.567749,563.551331 
	C1336.863403,584.060364 1357.786011,595.199280 1378.831543,591.207092 
	C1388.314087,589.408264 1395.694092,584.774963 1402.935791,578.046631 
	C1404.050171,576.889648 1404.494873,575.898010 1404.939697,574.906372 
	C1404.939697,574.906372 1404.981812,574.987061 1405.301270,574.930420 
	C1406.060425,573.884644 1406.500122,572.895508 1406.939697,571.906372 
	C1406.939697,571.906372 1406.981934,571.987061 1407.296997,571.934326 
	C1409.741455,566.976624 1411.870972,562.071594 1414.000488,557.166626 
z"/>
<path fill="#323231" opacity="1.000000" stroke="none" 
	d="
M715.179932,373.999634 
	C711.834717,374.453491 711.963196,372.590118 711.981445,370.638397 
	C712.034424,364.975098 712.000000,359.310944 712.000000,353.647125 
	C712.000000,301.677002 712.000000,249.706879 712.000000,197.368408 
	C723.493774,197.368408 734.892761,197.368408 746.647095,197.368408 
	C746.647095,255.849045 746.647095,314.561737 746.647095,374.000000 
	C736.486267,374.000000 726.075012,374.000000 715.179932,373.999634 
z"/>
<path fill="#C2111E" opacity="1.000000" stroke="none" 
	d="
M1552.999023,432.000000 
	C1559.139282,432.000000 1564.779663,432.000000 1570.708008,432.000000 
	C1570.708008,437.671051 1570.708008,443.067902 1570.708008,448.924561 
	C1553.943848,448.924561 1537.210083,448.924561 1520.036011,448.924561 
	C1520.036011,502.101562 1520.036011,554.825989 1520.036011,607.774048 
	C1513.649780,607.774048 1507.702148,607.774048 1501.305420,607.774048 
	C1501.305420,555.169678 1501.305420,502.445190 1501.305420,449.265930 
	C1484.137817,449.265930 1467.404053,449.265930 1450.336914,449.265930 
	C1450.336914,443.425385 1450.336914,438.025055 1450.336914,432.000000 
	C1484.325073,432.000000 1518.412231,432.000000 1552.999023,432.000000 
z"/>
<path fill="#C2111E" opacity="1.000000" stroke="none" 
	d="
M1114.979736,579.812073 
	C1106.520996,597.024048 1093.136841,606.497314 1074.330933,609.164185 
	C1057.519897,611.548218 1042.335815,608.521301 1028.453979,598.813599 
	C1022.960083,594.971619 1022.786560,593.614502 1027.493408,589.028687 
	C1030.320312,586.274536 1033.036987,582.081421 1036.310303,581.526672 
	C1038.976685,581.074768 1042.409546,585.046509 1045.479492,587.091370 
	C1057.590576,595.158325 1077.613525,593.636292 1088.740234,583.570435 
	C1094.908325,577.990356 1098.240356,570.406433 1098.931641,562.050476 
	C1099.584351,554.159973 1099.928955,546.223206 1099.954468,538.305298 
	C1100.062134,504.821716 1100.000000,471.337616 1100.000000,437.853699 
	C1100.000000,436.060211 1100.000000,434.266724 1100.000000,432.239380 
	C1106.778442,432.239380 1113.173950,432.239380 1120.000000,432.239380 
	C1120.000000,434.213684 1120.000000,436.001465 1120.000000,437.789246 
	C1120.000000,476.937103 1120.275757,516.088501 1119.773438,555.229919 
	C1119.669678,563.311584 1116.668701,571.356079 1114.979736,579.812073 
z"/>
<path fill="#C2111E" opacity="1.000000" stroke="none" 
	d="
M301.003784,502.000000 
	C296.338257,501.999939 292.168884,502.097565 288.005768,501.977753 
	C281.136993,501.780121 276.830414,497.140533 277.000092,490.299866 
	C277.147858,484.342987 281.916016,480.012695 288.386322,480.003845 
	C298.886078,479.989502 309.385895,479.979309 319.885559,480.007233 
	C326.915771,480.025909 331.013031,483.968475 331.000000,490.610779 
	C330.986176,497.671265 326.872253,501.955536 320.002319,501.992920 
	C313.835968,502.026489 307.669312,502.000000 301.003784,502.000000 
z"/>
<path fill="#323231" opacity="1.000000" stroke="none" 
	d="
M1211.309448,330.144623 
	C1215.234131,337.373383 1218.752563,344.482910 1222.729370,352.518768 
	C1225.650269,347.086212 1228.691284,342.465942 1230.709473,337.435303 
	C1233.772827,329.799103 1233.517822,329.646240 1241.741943,330.282532 
	C1241.741943,344.334778 1241.741943,358.409332 1241.741943,372.742584 
	C1239.284424,372.742584 1236.886230,372.742584 1234.066895,372.742584 
	C1234.066895,365.299896 1234.066895,357.921265 1234.066895,350.542633 
	C1233.731201,350.434143 1233.395630,350.325684 1233.059937,350.217224 
	C1231.177124,353.843445 1229.493896,357.596436 1227.311768,361.032715 
	C1226.452759,362.385803 1224.481934,363.783569 1223.013428,363.787933 
	C1221.545898,363.792267 1219.554321,362.406464 1218.704956,361.056091 
	C1216.564819,357.653381 1214.938721,353.927460 1212.201904,350.405334 
	C1212.201904,357.826660 1212.201904,365.247986 1212.201904,372.821106 
	C1209.251953,372.821106 1206.963623,372.821106 1204.336914,372.821106 
	C1204.336914,358.819672 1204.336914,344.749542 1204.336914,330.025391 
	C1206.407715,330.025391 1208.655396,330.025391 1211.309448,330.144623 
z"/>
<path fill="#323231" opacity="1.000000" stroke="none" 
	d="
M1196.006592,285.990479 
	C1194.628906,288.976105 1193.562378,291.762146 1191.885742,294.112946 
	C1190.738037,295.722260 1188.921021,297.254303 1187.082642,297.881897 
	C1183.918701,298.962128 1183.048096,296.189362 1181.967163,293.937317 
	C1180.396118,290.664001 1178.654785,287.472321 1176.039917,284.510590 
	C1176.039917,291.868256 1176.039917,299.225952 1176.039917,306.784088 
	C1173.204102,306.784088 1170.806152,306.784088 1168.222168,306.784088 
	C1168.222168,292.502747 1168.222168,278.426758 1168.222168,264.175598 
	C1170.727783,264.175598 1173.014282,264.175598 1175.572388,264.175598 
	C1179.179443,271.366028 1182.855347,278.693481 1186.970215,286.896149 
	C1190.985840,278.942932 1194.658813,271.668579 1198.441650,264.176453 
	C1200.682373,264.176453 1203.111816,264.176453 1205.770752,264.176453 
	C1205.770752,278.408630 1205.770752,292.484924 1205.770752,306.780823 
	C1203.210449,306.780823 1200.812500,306.780823 1197.978516,306.780823 
	C1197.978516,299.239868 1197.978516,291.878418 1197.978516,283.502136 
	C1196.864746,284.721710 1196.461304,285.163544 1196.006592,285.990479 
z"/>
<path fill="#323231" opacity="1.000000" stroke="none" 
	d="
M1257.941650,372.999451 
	C1256.161499,372.999939 1254.854736,372.999939 1253.274780,372.999939 
	C1253.274780,358.672485 1253.274780,344.603485 1253.274780,329.676880 
	C1259.682007,330.061676 1266.022217,330.514496 1272.369873,330.804352 
	C1279.335327,331.122437 1282.042114,335.909058 1282.846802,341.652252 
	C1283.621582,347.182190 1281.167358,351.800964 1275.945190,354.726074 
	C1278.712158,360.690002 1281.479492,366.654541 1284.310303,372.755859 
	C1281.450562,372.755859 1278.409180,372.755859 1275.410645,372.755859 
	C1273.342773,368.691071 1270.927856,364.783203 1269.332275,360.565369 
	C1267.821045,356.570526 1265.590332,355.000397 1260.999512,356.494415 
	C1260.999512,360.782440 1261.152832,365.417999 1260.881836,370.028625 
	C1260.821045,371.063507 1259.276489,372.011169 1257.941650,372.999451 
M1261.715820,348.909546 
	C1264.044800,348.939667 1266.375610,348.924072 1268.702515,349.010254 
	C1272.489502,349.150543 1274.502075,347.247009 1274.989136,343.615784 
	C1275.564697,339.324524 1272.778442,337.648102 1269.295410,337.089142 
	C1266.738892,336.678864 1264.063477,337.008698 1261.077393,337.008698 
	C1261.077393,340.980255 1261.077393,344.597198 1261.715820,348.909546 
z"/>
<path fill="#323231" opacity="1.000000" stroke="none" 
	d="
M1242.996582,210.262085 
	C1242.999634,220.050705 1243.071045,229.367859 1242.981689,238.683472 
	C1242.874023,249.918091 1232.116455,253.643143 1224.973999,251.480225 
	C1219.117676,249.706772 1218.660889,247.946411 1221.728027,244.237411 
	C1225.895996,244.237411 1229.479858,245.145859 1232.081909,243.938477 
	C1234.023682,243.037399 1234.696899,239.402679 1235.329224,236.525696 
	C1230.999146,239.894318 1226.575806,239.808273 1222.488281,237.680450 
	C1218.196167,235.446167 1216.964722,231.019135 1217.052734,226.436890 
	C1217.124512,222.699692 1217.598389,218.964188 1218.012939,215.241165 
	C1218.499756,210.867233 1221.803345,208.206619 1225.399658,208.259537 
	C1230.860840,208.339890 1236.295898,208.832214 1241.761353,208.126511 
	C1242.094971,208.083435 1242.579468,209.208435 1242.996582,210.262085 
M1227.882935,215.042404 
	C1223.514526,217.946182 1224.919556,222.492599 1225.216064,226.341080 
	C1225.368042,228.315338 1227.368042,230.916031 1229.222290,231.820862 
	C1232.486206,233.413605 1233.671997,230.235245 1234.574829,227.878799 
	C1237.263306,220.860870 1234.613159,215.181763 1227.882935,215.042404 
z"/>
<path fill="#323231" opacity="1.000000" stroke="none" 
	d="
M1192.547119,348.379364 
	C1192.906372,350.643311 1192.906372,352.599762 1192.906372,354.986938 
	C1187.235718,354.986938 1181.816895,354.986938 1176.208740,354.986938 
	C1176.208740,358.696564 1176.208740,361.981506 1176.208740,365.715576 
	C1182.474976,365.715576 1188.885742,365.715576 1195.645264,365.715576 
	C1195.645264,368.213562 1195.645264,370.278687 1195.645264,372.675232 
	C1186.802856,372.675232 1177.724731,372.675232 1168.321777,372.675232 
	C1168.321777,358.741730 1168.321777,344.678009 1168.321777,330.306122 
	C1177.290649,330.306122 1186.356323,330.306122 1195.712646,330.306122 
	C1195.712646,332.326202 1195.712646,334.391541 1195.712646,336.896118 
	C1189.335083,336.896118 1182.921387,336.896118 1176.257812,336.896118 
	C1176.257812,340.719971 1176.257812,344.118317 1176.257812,348.071869 
	C1181.628052,348.071869 1186.907959,348.071869 1192.547119,348.379364 
z"/>
<path fill="#323231" opacity="1.000000" stroke="none" 
	d="
M1251.786377,276.666077 
	C1256.236450,276.121857 1260.382324,275.847107 1265.003418,275.540833 
	C1265.003418,272.656464 1265.003418,268.555359 1265.003418,264.231262 
	C1267.763794,264.231262 1270.162476,264.231262 1272.782104,264.231262 
	C1272.782104,278.463104 1272.782104,292.537445 1272.782104,307.763214 
	C1269.779175,306.865540 1267.245483,306.035461 1264.665771,305.388153 
	C1264.022583,305.226746 1263.201416,305.572968 1262.513062,305.825165 
	C1254.417725,308.790680 1248.963257,306.410126 1247.601318,297.864441 
	C1246.468750,290.757416 1244.853149,282.895050 1251.786377,276.666077 
M1262.895264,282.393982 
	C1258.848877,281.224762 1255.603882,281.800079 1255.068848,286.697723 
	C1254.747681,289.638641 1254.512817,292.767578 1255.204468,295.574188 
	C1255.625488,297.282776 1257.637695,299.205475 1259.372437,299.843597 
	C1262.039307,300.824585 1264.341797,299.610931 1264.246338,296.270721 
	C1264.120117,291.849640 1263.752197,287.435486 1262.895264,282.393982 
z"/>
<path fill="#323231" opacity="1.000000" stroke="none" 
	d="
M1251.000000,212.004166 
	C1251.000000,206.865524 1251.000000,202.226135 1251.000000,197.294617 
	C1253.644287,197.294617 1256.043091,197.294617 1258.870972,197.294617 
	C1258.870972,200.994507 1258.870972,204.756027 1258.870972,209.026184 
	C1260.540405,208.820007 1261.781128,208.807983 1262.943726,208.500320 
	C1270.535767,206.491074 1276.533081,210.393906 1276.922485,218.152054 
	C1277.279175,225.260147 1276.998169,232.400238 1276.998169,239.760132 
	C1274.251709,239.760132 1271.854492,239.760132 1268.999878,239.760132 
	C1268.999878,233.190811 1268.931641,226.740814 1269.027588,220.293289 
	C1269.078613,216.871475 1267.824829,215.029999 1264.175293,214.965363 
	C1260.302490,214.896774 1258.894409,216.741943 1258.966187,220.443771 
	C1259.088623,226.750214 1259.000000,233.060760 1259.000000,239.683975 
	C1256.395630,239.683975 1253.995361,239.683975 1251.000000,239.683975 
	C1251.000000,230.697662 1251.000000,221.600540 1251.000000,212.004166 
z"/>
<path fill="#323231" opacity="1.000000" stroke="none" 
	d="
M1354.385254,306.998535 
	C1351.854980,305.893890 1350.215698,305.184113 1347.455322,306.562866 
	C1343.752563,308.412262 1339.256348,306.918549 1336.769531,303.879517 
	C1335.012329,301.732300 1334.117188,297.751343 1334.750122,295.034790 
	C1335.760498,290.698700 1339.704956,288.932892 1344.220337,288.994110 
	C1346.687256,289.027527 1349.155151,289.000092 1352.882935,289.000092 
	C1351.725342,286.361755 1351.272705,283.214966 1349.979980,282.820404 
	C1347.221191,281.978333 1344.027222,282.562836 1341.011475,282.562836 
	C1340.963135,283.057159 1340.914795,283.551514 1340.866333,284.045837 
	C1339.023926,282.470123 1337.181396,280.894409 1335.349731,279.327942 
	C1340.385864,274.302887 1350.114502,273.011475 1355.653931,277.478851 
	C1357.792725,279.203766 1359.582520,282.511261 1359.805176,285.238678 
	C1360.381714,292.302460 1359.998535,299.444580 1359.998535,306.999756 
	C1358.035645,306.999756 1356.429077,306.999756 1354.385254,306.998535 
M1348.473633,293.999969 
	C1346.890991,294.243469 1344.947876,294.018616 1343.836670,294.874359 
	C1342.899170,295.596283 1342.927490,297.572296 1342.528320,298.993225 
	C1344.562256,299.322174 1346.665527,300.108917 1348.605347,299.815491 
	C1349.852173,299.626923 1351.091675,297.979980 1351.812866,296.694153 
	C1351.999634,296.361237 1350.225220,294.928192 1348.473633,293.999969 
z"/>
<path fill="#323231" opacity="1.000000" stroke="none" 
	d="
M1290.000000,288.927429 
	C1290.000000,290.909851 1290.070557,292.410370 1289.985840,293.902069 
	C1289.781006,297.511627 1290.593140,300.042206 1295.007568,300.049316 
	C1299.557983,300.056641 1299.919922,297.007538 1299.971802,293.763397 
	C1300.069702,287.650848 1300.000000,281.535583 1300.000000,275.215088 
	C1302.793823,275.215088 1305.188477,275.215088 1307.791992,275.215088 
	C1307.791992,285.805267 1307.791992,296.199158 1307.791992,307.739716 
	C1304.801147,306.866180 1302.271606,306.023651 1299.684570,305.434814 
	C1298.905273,305.257477 1297.924438,305.681427 1297.105713,306.005951 
	C1289.377197,309.069183 1282.412598,304.861725 1282.061523,296.564880 
	C1281.767090,289.608673 1282.001099,282.630127 1282.001099,275.331360 
	C1284.574097,275.331360 1286.972900,275.331360 1290.000000,275.331360 
	C1290.000000,279.591522 1290.000000,284.016479 1290.000000,288.927429 
z"/>
<path fill="#323231" opacity="1.000000" stroke="none" 
	d="
M1224.697632,306.882843 
	C1215.344482,301.990021 1211.961914,290.008392 1216.999268,280.954071 
	C1219.404053,276.631592 1225.906250,273.668518 1231.538452,275.122833 
	C1236.168457,276.318390 1240.417603,278.656891 1240.985474,284.304443 
	C1241.358032,288.009674 1242.255249,291.850159 1241.671631,295.426819 
	C1240.173218,304.609589 1234.562256,307.890106 1224.697632,306.882843 
M1223.000000,293.198425 
	C1222.794067,297.336121 1224.533203,300.174957 1228.870117,299.890747 
	C1232.796875,299.633392 1234.302612,296.802948 1234.024780,292.941742 
	C1233.881836,290.954468 1234.120117,288.939331 1233.969971,286.953125 
	C1233.723511,283.692657 1231.853638,282.030243 1228.568481,282.001892 
	C1225.304688,281.973755 1223.387573,283.601379 1223.040649,286.817993 
	C1222.845459,288.628174 1223.001953,290.476288 1223.000000,293.198425 
z"/>
<path fill="#323231" opacity="1.000000" stroke="none" 
	d="
M1176.000000,225.927170 
	C1176.000000,228.398407 1176.000000,230.378525 1176.000000,232.789871 
	C1182.244629,232.789871 1188.308472,232.789871 1194.683228,232.789871 
	C1194.683228,235.276886 1194.683228,237.338776 1194.683228,239.703308 
	C1186.080811,239.703308 1177.350220,239.703308 1168.308228,239.703308 
	C1168.308228,225.733337 1168.308228,211.688858 1168.308228,197.321289 
	C1170.592529,197.321289 1172.990967,197.321289 1176.000000,197.321289 
	C1176.000000,206.603363 1176.000000,216.019714 1176.000000,225.927170 
z"/>
<path fill="#323231" opacity="1.000000" stroke="none" 
	d="
M1294.032959,217.345032 
	C1294.005859,222.621292 1294.005859,227.430405 1294.005859,232.578140 
	C1295.599243,232.821701 1297.122681,233.054550 1298.781860,233.308151 
	C1298.781860,235.506821 1298.781860,237.580582 1298.781860,239.631210 
	C1289.630493,240.551559 1286.003784,237.378784 1286.000244,228.660995 
	C1285.999023,225.837265 1286.251831,222.981537 1285.898560,220.202713 
	C1285.708618,218.708374 1284.239502,217.418198 1283.786011,215.904556 
	C1283.292603,214.257767 1282.586426,212.108749 1283.227661,210.787750 
	C1285.766846,205.556473 1285.948975,205.644852 1286.104980,200.371628 
	C1288.471680,200.371628 1290.865845,200.371628 1293.715820,200.371628 
	C1293.715820,203.141907 1293.715820,206.209778 1293.715820,209.573029 
	C1295.626099,209.840302 1297.156738,210.054474 1298.828125,210.288330 
	C1298.828125,212.075089 1298.828125,213.692612 1298.828125,215.398285 
	C1297.285522,215.876999 1295.672729,216.377441 1294.032959,217.345032 
z"/>
<path fill="#323231" opacity="1.000000" stroke="none" 
	d="
M1324.000000,274.030640 
	C1324.000000,282.814636 1324.000000,291.104523 1324.000000,299.747467 
	C1325.945923,299.894226 1327.686035,300.025452 1329.709961,300.178131 
	C1329.709961,302.286896 1329.709961,304.356903 1329.709961,306.439850 
	C1320.014648,308.184967 1316.000244,304.829071 1316.000000,294.935425 
	C1315.999756,284.820312 1316.000000,274.705170 1316.000000,264.295898 
	C1318.638794,264.295898 1321.035034,264.295898 1324.000000,264.295898 
	C1324.000000,267.326477 1324.000000,270.431488 1324.000000,274.030640 
z"/>
<path fill="#323231" opacity="1.000000" stroke="none" 
	d="
M1382.476318,282.008911 
	C1377.315918,281.354950 1375.991211,284.088043 1375.997559,288.158112 
	C1376.007080,294.282501 1376.000000,300.406891 1376.000000,306.762482 
	C1373.247803,306.762482 1370.851196,306.762482 1368.225342,306.762482 
	C1368.225342,296.227051 1368.225342,285.825500 1368.225342,275.058472 
	C1375.790771,275.394409 1383.143921,275.720947 1391.913330,276.110382 
	C1389.008911,279.400391 1387.254028,281.388123 1385.371704,283.520325 
	C1384.686279,283.107086 1383.781494,282.561737 1382.476318,282.008911 
z"/>
<path fill="#323231" opacity="1.000000" stroke="none" 
	d="
M1203.173096,239.948761 
	C1202.700195,229.392166 1202.700195,218.877396 1202.700195,208.179428 
	C1204.744751,208.179428 1207.030884,208.179428 1209.659302,208.179428 
	C1209.659302,218.492828 1209.659302,228.887848 1209.659302,239.990585 
	C1207.791138,239.990585 1205.718628,239.990585 1203.173096,239.948761 
z"/>
<path fill="#323231" opacity="1.000000" stroke="none" 
	d="
M1202.004639,199.114532 
	C1204.363281,197.861023 1206.718018,197.072281 1209.663696,196.085632 
	C1209.663696,199.211670 1209.663696,201.276413 1209.663696,203.673752 
	C1207.459839,203.673752 1205.057983,203.673752 1202.243774,203.673752 
	C1202.169678,202.425003 1202.085205,201.002151 1202.004639,199.114532 
z"/>
<path fill="#C2111E" opacity="1.000000" stroke="none" 
	d="
M1413.612793,557.100403 
	C1411.870972,562.071594 1409.741455,566.976624 1407.257080,571.912354 
	C1409.009888,566.973450 1411.117554,562.003784 1413.612793,557.100403 
z"/>
<path fill="#C2111E" opacity="1.000000" stroke="none" 
	d="
M1406.635254,572.030640 
	C1406.500122,572.895508 1406.060425,573.884644 1405.261353,574.908447 
	C1405.378296,574.013733 1405.854492,573.084351 1406.635254,572.030640 
z"/>
<path fill="#C2111E" opacity="1.000000" stroke="none" 
	d="
M1404.634277,575.031616 
	C1404.494873,575.898010 1404.050171,576.889648 1403.244995,577.919922 
	C1403.365967,577.024597 1403.847412,576.090698 1404.634277,575.031616 
z"/>
<path fill="#C2111E" opacity="1.000000" stroke="none" 
	d="
M1431.871826,557.725220 
	C1431.575806,557.893921 1431.365112,557.738342 1431.109375,557.342773 
	C1431.315063,557.265991 1431.612671,557.365417 1431.871826,557.725220 
z"/>
<path fill="#FFFFFF" opacity="1.000000" stroke="none" 
	d="
M258.995270,300.000000 
	C248.868683,299.199280 241.108597,291.485901 241.013565,282.554749 
	C240.931168,274.808105 249.629013,265.622253 258.009003,265.067108 
	C263.816223,264.682404 271.942474,268.465820 274.986938,276.643402 
	C277.822571,284.260040 275.259003,292.469299 268.327209,296.789368 
	C265.709808,298.420593 262.413116,298.961884 258.995270,300.000000 
z"/>
<path fill="#FFFFFF" opacity="1.000000" stroke="none" 
	d="
M352.712158,299.998413 
	C339.829041,300.212433 334.649536,291.800842 333.231812,283.168304 
	C332.101318,276.284943 338.748749,268.580048 346.625061,265.997711 
	C352.998535,263.908081 360.797333,266.912415 364.957489,272.659424 
	C371.547028,281.762421 367.764740,296.837311 352.712158,299.998413 
z"/>
<path fill="#FFFFFF" opacity="1.000000" stroke="none" 
	d="
M376.690063,573.194519 
	C383.133514,578.152283 384.439819,584.853333 382.608459,591.580627 
	C380.731079,598.476929 374.777405,602.148376 368.057800,603.900879 
	C361.461731,605.621094 352.044769,598.887329 349.618652,591.130249 
	C347.350250,583.877441 350.202942,576.323547 357.049408,571.453613 
	C362.439697,567.619446 370.726715,568.256592 376.690063,573.194519 
z"/>
<path fill="#FFFFFF" opacity="1.000000" stroke="none" 
	d="
M788.960815,449.000000 
	C797.806580,448.966309 806.005371,449.620819 813.862366,452.939270 
	C827.485474,458.693085 832.442505,473.391174 830.871826,485.749969 
	C829.154968,499.259338 821.492371,508.081116 808.062622,511.433899 
	C805.238586,512.138977 802.328857,512.904053 799.452393,512.929321 
	C783.169434,513.072327 766.884460,512.998474 750.300781,512.998474 
	C750.300781,491.700500 750.300781,470.659119 750.300781,449.000000 
	C762.980347,449.000000 775.723938,449.000000 788.960815,449.000000 
z"/>
<path fill="#FFFFFF" opacity="1.000000" stroke="none" 
	d="
M919.778931,581.280457 
	C909.770630,573.029358 906.809753,561.888611 906.117188,550.141235 
	C905.288696,536.090027 904.739990,521.968262 905.191406,507.913055 
	C905.540222,497.052704 906.827026,486.078918 909.099915,475.455750 
	C913.019043,457.137970 936.971985,444.646423 954.911987,448.715576 
	C967.056824,451.470306 976.594482,457.380829 982.720703,467.648529 
	C986.150696,473.397156 988.298828,480.605011 988.740356,487.305908 
	C989.851440,504.165863 990.045166,521.115967 989.839050,538.020508 
	C989.736328,546.443970 988.850952,555.082886 986.724609,563.206909 
	C983.020569,577.358826 973.007080,586.153870 959.178528,590.285400 
	C944.632935,594.631104 931.564270,591.240356 919.778931,581.280457 
z"/>
<path fill="#FFFFFF" opacity="1.000000" stroke="none" 
	d="
M671.019653,465.133362 
	C678.862732,479.140350 677.260193,500.190521 664.639893,509.508453 
	C659.249817,513.488159 652.340088,517.194153 645.897095,517.617432 
	C628.848633,518.737305 611.678040,517.996948 594.278931,517.996948 
	C594.278931,494.980011 594.278931,472.263245 594.278931,449.000000 
	C608.570435,449.000000 622.858582,448.465759 637.078186,449.221924 
	C644.355530,449.608887 651.893860,451.406281 658.590271,454.263031 
	C663.342590,456.290436 666.883545,461.156952 671.019653,465.133362 
z"/>
<path fill="#FFFFFF" opacity="1.000000" stroke="none" 
	d="
M1261.396606,348.561829 
	C1261.077393,344.597198 1261.077393,340.980255 1261.077393,337.008698 
	C1264.063477,337.008698 1266.738892,336.678864 1269.295410,337.089142 
	C1272.778442,337.648102 1275.564697,339.324524 1274.989136,343.615784 
	C1274.502075,347.247009 1272.489502,349.150543 1268.702515,349.010254 
	C1266.375610,348.924072 1264.044800,348.939667 1261.396606,348.561829 
z"/>
<path fill="#FFFFFF" opacity="1.000000" stroke="none" 
	d="
M1228.309570,215.023315 
	C1234.613159,215.181763 1237.263306,220.860870 1234.574829,227.878799 
	C1233.671997,230.235245 1232.486206,233.413605 1229.222290,231.820862 
	C1227.368042,230.916031 1225.368042,228.315338 1225.216064,226.341080 
	C1224.919556,222.492599 1223.514526,217.946182 1228.309570,215.023315 
z"/>
<path fill="#FFFFFF" opacity="1.000000" stroke="none" 
	d="
M1263.191650,282.706177 
	C1263.752197,287.435486 1264.120117,291.849640 1264.246338,296.270721 
	C1264.341797,299.610931 1262.039307,300.824585 1259.372437,299.843597 
	C1257.637695,299.205475 1255.625488,297.282776 1255.204468,295.574188 
	C1254.512817,292.767578 1254.747681,289.638641 1255.068848,286.697723 
	C1255.603882,281.800079 1258.848877,281.224762 1263.191650,282.706177 
z"/>
<path fill="#FFFFFF" opacity="1.000000" stroke="none" 
	d="
M1348.912598,294.000214 
	C1350.225220,294.928192 1351.999634,296.361237 1351.812866,296.694153 
	C1351.091675,297.979980 1349.852173,299.626923 1348.605347,299.815491 
	C1346.665527,300.108917 1344.562256,299.322174 1342.528320,298.993225 
	C1342.927490,297.572296 1342.899170,295.596283 1343.836670,294.874359 
	C1344.947876,294.018616 1346.890991,294.243469 1348.912598,294.000214 
z"/>
<path fill="#FFFFFF" opacity="1.000000" stroke="none" 
	d="
M1223.000000,292.752869 
	C1223.001953,290.476288 1222.845459,288.628174 1223.040649,286.817993 
	C1223.387573,283.601379 1225.304688,281.973755 1228.568481,282.001892 
	C1231.853638,282.030243 1233.723511,283.692657 1233.969971,286.953125 
	C1234.120117,288.939331 1233.881836,290.954468 1234.024780,292.941742 
	C1234.302612,296.802948 1232.796875,299.633392 1228.870117,299.890747 
	C1224.533203,300.174957 1222.794067,297.336121 1223.000000,292.752869 
z"/>
</svg>